<svg width="159" height="27" viewBox="0 0 159 27" fill="none" xmlns="http://www.w3.org/2000/svg">
<path d="M43.3626 4.41937V11.3458C44.6273 9.66828 46.341 8.82954 48.5038 8.82954C49.7685 8.82954 50.9324 9.13618 51.9955 9.74945C53.0586 10.3627 53.9017 11.2015 54.5249 12.2657C55.1481 13.3119 55.4597 14.4482 55.4597 15.6748C55.4597 16.9013 55.1481 18.0467 54.5249 19.1109C53.9017 20.1571 53.0586 20.9868 51.9955 21.6001C50.9324 22.2134 49.7685 22.52 48.5038 22.52C46.4143 22.52 44.7006 21.6362 43.3626 19.8685V22.3847H41.5205V4.41937H43.3626ZM43.4176 15.6748C43.4176 16.5766 43.6467 17.4154 44.1049 18.191C44.5631 18.9486 45.1771 19.5528 45.947 20.0038C46.7351 20.4547 47.5874 20.6802 48.5038 20.6802C49.4203 20.6802 50.2634 20.4547 51.0332 20.0038C51.8031 19.5528 52.4171 18.9486 52.8753 18.191C53.3335 17.4154 53.5626 16.5766 53.5626 15.6748C53.5626 14.7729 53.3335 13.9432 52.8753 13.1856C52.4171 12.428 51.8031 11.8238 51.0332 11.3728C50.2634 10.9219 49.4203 10.6964 48.5038 10.6964C47.5874 10.6964 46.7351 10.9219 45.947 11.3728C45.1771 11.8238 44.5631 12.428 44.1049 13.1856C43.6467 13.9432 43.4176 14.7729 43.4176 15.6748Z" fill="#F7F8FA"/>
<path d="M59.7948 4.39232V22.3847H57.9253V4.39232H59.7948Z" fill="#F7F8FA"/>
<path d="M69.2242 22.52C67.9779 22.52 66.814 22.2134 65.7326 21.6001C64.6695 20.9868 63.8264 20.1571 63.2032 19.1109C62.58 18.0467 62.2684 16.9013 62.2684 15.6748C62.2684 14.4302 62.58 13.2848 63.2032 12.2386C63.8264 11.1744 64.6695 10.3357 65.7326 9.7224C66.814 9.09108 67.9779 8.77543 69.2242 8.77543C70.4889 8.77543 71.6528 9.09108 72.7159 9.7224C73.7973 10.3357 74.6496 11.1744 75.2728 12.2386C75.9143 13.2848 76.2351 14.4302 76.2351 15.6748C76.2351 16.9013 75.9143 18.0467 75.2728 19.1109C74.6496 20.1571 73.7973 20.9868 72.7159 21.6001C71.6528 22.2134 70.4889 22.52 69.2242 22.52ZM69.2242 20.7072C70.159 20.7072 71.0113 20.4818 71.7811 20.0308C72.5693 19.5799 73.1925 18.9666 73.6507 18.191C74.1089 17.4154 74.338 16.5766 74.338 15.6748C74.338 14.7549 74.1089 13.9071 73.6507 13.1315C73.1925 12.3559 72.5693 11.7426 71.7811 11.2917C71.0113 10.8407 70.159 10.6153 69.2242 10.6153C68.3078 10.6153 67.4555 10.8407 66.6673 11.2917C65.8975 11.7426 65.2835 12.3559 64.8253 13.1315C64.3671 13.9071 64.138 14.7549 64.138 15.6748C64.138 16.5766 64.3671 17.4154 64.8253 18.191C65.2835 18.9666 65.8975 19.5799 66.6673 20.0308C67.4555 20.4818 68.3078 20.7072 69.2242 20.7072Z" fill="#F7F8FA"/>
<path d="M90.1017 20.112C89.4418 20.8696 88.6537 21.4648 87.7372 21.8977C86.8391 22.3126 85.8677 22.52 84.8229 22.52C83.5765 22.52 82.4218 22.2134 81.3587 21.6001C80.2957 20.9868 79.4525 20.1571 78.8293 19.1109C78.2062 18.0647 77.8946 16.9284 77.8946 15.7018C77.8946 14.4753 78.2062 13.3389 78.8293 12.2927C79.4525 11.2466 80.2957 10.4168 81.3587 9.80356C82.4218 9.19029 83.5765 8.88365 84.8229 8.88365C85.8677 8.88365 86.8391 9.1001 87.7372 9.533C88.6537 9.94786 89.4418 10.5341 90.1017 11.2917L88.4245 12.2386C87.9663 11.7697 87.4256 11.4089 86.8024 11.1564C86.1793 10.8858 85.5194 10.7505 84.8229 10.7505C83.9065 10.7505 83.0633 10.976 82.2935 11.4269C81.5237 11.8598 80.9097 12.4551 80.4514 13.2127C79.9932 13.9702 79.7641 14.8 79.7641 15.7018C79.7641 16.6037 79.9932 17.4334 80.4514 18.191C80.9097 18.9486 81.5237 19.5528 82.2935 20.0038C83.0633 20.4367 83.9065 20.6531 84.8229 20.6531C85.5194 20.6531 86.1793 20.5269 86.8024 20.2743C87.4256 20.0038 87.9663 19.634 88.4245 19.165L90.1017 20.112Z" fill="#F7F8FA"/>
<path d="M99.4883 22.3847L94.4845 16.6217V22.3847H92.5874V4.25703H94.4845V12.8609L98.9934 8.8566H101.825L95.2543 14.6737L101.99 22.3847H99.4883Z" fill="#F7F8FA"/>
<path d="M116.426 9.20833V22.3847H114.529V19.8955C113.264 21.6452 111.578 22.52 109.47 22.52C108.206 22.52 107.042 22.2224 105.979 21.6271C104.916 21.0139 104.072 20.1841 103.449 19.138C102.844 18.0918 102.542 16.9554 102.542 15.7289C102.542 14.4843 102.844 13.3389 103.449 12.2927C104.072 11.2466 104.916 10.4259 105.979 9.83062C107.042 9.21735 108.206 8.91071 109.47 8.91071C110.772 8.91071 111.835 9.18127 112.66 9.7224C113.503 10.2455 114.126 10.8137 114.529 11.4269V9.20833H116.426ZM109.47 20.6802C110.387 20.6802 111.23 20.4637 112 20.0308C112.77 19.5799 113.374 18.9756 113.814 18.2181C114.273 17.4605 114.502 16.6308 114.502 15.7289C114.502 14.827 114.273 13.9973 113.814 13.2397C113.374 12.4641 112.77 11.8598 112 11.4269C111.23 10.976 110.387 10.7505 109.47 10.7505C108.554 10.7505 107.702 10.976 106.913 11.4269C106.144 11.8598 105.53 12.4641 105.071 13.2397C104.632 13.9973 104.412 14.827 104.412 15.7289C104.412 16.6308 104.632 17.4605 105.071 18.2181C105.53 18.9756 106.144 19.5799 106.913 20.0308C107.702 20.4637 108.554 20.6802 109.47 20.6802Z" fill="#F7F8FA"/>
<path d="M131.196 8.91071L125.779 22.3847H123.772L118.356 8.91071H120.363L124.79 19.8144L129.189 8.91071H131.196Z" fill="#F7F8FA"/>
<path d="M133.733 16.6217C133.953 17.7761 134.531 18.7411 135.465 19.5168C136.4 20.2743 137.472 20.6531 138.682 20.6531C139.58 20.6531 140.405 20.4457 141.157 20.0308C141.908 19.616 142.513 19.0478 142.971 18.3263L144.593 19.2462C143.97 20.2383 143.136 21.0319 142.091 21.6271C141.047 22.2224 139.91 22.52 138.682 22.52C137.436 22.52 136.281 22.2134 135.218 21.6001C134.155 20.9868 133.312 20.1571 132.689 19.1109C132.065 18.0647 131.754 16.9284 131.754 15.7018C131.754 14.4572 132.065 13.3209 132.689 12.2927C133.312 11.2466 134.155 10.4168 135.218 9.80356C136.281 9.19029 137.436 8.88365 138.682 8.88365C139.929 8.88365 141.083 9.19029 142.146 9.80356C143.209 10.4168 144.053 11.2466 144.676 12.2927C145.299 13.3209 145.611 14.4572 145.611 15.7018C145.611 15.9183 145.592 16.2249 145.556 16.6217H133.733ZM138.682 10.7235C137.876 10.7235 137.088 10.9129 136.318 11.2917C135.548 11.6524 134.925 12.1575 134.448 12.8068C133.972 13.4381 133.733 14.1235 133.733 14.8631H143.631C143.631 14.1235 143.393 13.4381 142.916 12.8068C142.44 12.1575 141.816 11.6524 141.047 11.2917C140.295 10.9129 139.507 10.7235 138.682 10.7235Z" fill="#F7F8FA"/>
<path d="M153.528 8.8566C154.518 8.8566 155.425 9.1001 156.25 9.58711C157.093 10.0561 157.762 10.7054 158.257 11.5352C158.752 12.3469 158.999 13.2397 158.999 14.2137V22.3847H157.102V14.2137C157.102 13.5824 156.937 13.0052 156.607 12.4821C156.296 11.941 155.865 11.5171 155.315 11.2105C154.765 10.8858 154.17 10.7235 153.528 10.7235C152.887 10.7235 152.291 10.8858 151.741 11.2105C151.191 11.5171 150.751 11.941 150.421 12.4821C150.11 13.0052 149.954 13.5824 149.954 14.2137V22.3847H148.084V9.20833H149.954V10.3988C150.412 9.89375 150.944 9.51496 151.549 9.26244C152.172 8.99188 152.832 8.8566 153.528 8.8566Z" fill="#F7F8FA"/>
<g clip-path="url(#clip0_16189_15878)">
<rect y="3.05176e-05" width="27.594" height="27.594" fill="#3993FF"/>
<g clip-path="url(#clip1_16189_15878)">
<path d="M12.6638 15.4671C11.63 16.5112 10.6632 17.4381 9.72471 18.0728C7.18732 19.7927 3.64964 18.9482 0.889527 17.7767C0.29219 17.5243 -0.267814 17.2553 -0.772461 16.994V11.2871C-0.253653 11.1403 0.299914 11.027 0.889527 10.9639C2.95575 10.7399 5.45195 11.112 8.33694 12.6761C9.62044 13.3713 10.7276 14.0652 11.6841 14.7411C12.0304 14.9857 12.3561 15.2277 12.6638 15.4684V15.4671Z" fill="#004AD9"/>
<path d="M28.3671 7.76871V27.5941H-0.772461V16.9927C-0.267814 17.254 0.293477 17.5231 0.889528 17.7754C3.64964 18.9469 7.18732 19.7914 9.72472 18.0715C10.6632 17.4368 11.63 16.5099 12.6638 15.4659C12.9444 15.1852 13.2289 14.893 13.5212 14.5969C16.8232 11.2304 20.8566 7.19583 26.7051 7.55372C27.2432 7.5859 27.798 7.65671 28.3671 7.76871Z" fill="#0F75FC"/>
</g>
</g>
<defs>
<clipPath id="clip0_16189_15878">
<rect y="3.05176e-05" width="27.4363" height="27" rx="7" fill="white"/>
</clipPath>
<clipPath id="clip1_16189_15878">
<rect width="29.1395" height="20.0623" fill="white" transform="translate(-0.772461 7.53177)"/>
</clipPath>
</defs>
</svg>
